<svg width="117" height="117" viewBox="0 0 117 117" fill="none" xmlns="http://www.w3.org/2000/svg">
<path d="M71.76 42.8512L50.8463 63.8138L42.8025 55.77C42.3655 55.2597 41.8277 54.8452 41.2229 54.5526C40.6181 54.26 39.9593 54.0955 39.2879 54.0696C38.6165 54.0437 37.947 54.1568 37.3214 54.4019C36.6959 54.647 36.1277 55.0187 35.6526 55.4938C35.1775 55.9689 34.8058 56.5371 34.5607 57.1627C34.3156 57.7883 34.2024 58.4578 34.2284 59.1291C34.2543 59.8005 34.4187 60.4593 34.7114 61.0641C35.004 61.6689 35.4184 62.2067 35.9288 62.6438L47.385 74.1488C47.8405 74.6006 48.3808 74.958 48.9747 75.2006C49.5687 75.4432 50.2047 75.5662 50.8463 75.5625C52.1252 75.5571 53.3508 75.0494 54.2588 74.1488L78.6338 49.7738C79.0907 49.3206 79.4534 48.7814 79.7009 48.1873C79.9484 47.5932 80.0758 46.9561 80.0758 46.3125C80.0758 45.6689 79.9484 45.0318 79.7009 44.4377C79.4534 43.8436 79.0907 43.3044 78.6338 42.8512C77.7204 41.9433 76.4848 41.4336 75.1969 41.4336C73.909 41.4336 72.6734 41.9433 71.76 42.8512ZM58.5 9.75C48.8582 9.75 39.4329 12.6091 31.416 17.9659C23.3991 23.3226 17.1507 30.9363 13.4609 39.8442C9.77112 48.7521 8.80571 58.5541 10.6867 68.0107C12.5678 77.4672 17.2108 86.1536 24.0286 92.9715C30.8464 99.7893 39.5328 104.432 48.9894 106.313C58.4459 108.194 68.2479 107.229 77.1558 103.539C86.0637 99.8494 93.6774 93.6009 99.0342 85.584C104.391 77.5672 107.25 68.1418 107.25 58.5C107.25 52.0981 105.989 45.7588 103.539 39.8442C101.089 33.9296 97.4983 28.5554 92.9715 24.0285C88.4446 19.5017 83.0705 15.9108 77.1558 13.4609C71.2412 11.011 64.902 9.75 58.5 9.75ZM58.5 97.5C50.7866 97.5 43.2463 95.2127 36.8328 90.9273C30.4193 86.6419 25.4205 80.551 22.4687 73.4247C19.5169 66.2983 18.7446 58.4567 20.2494 50.8915C21.7542 43.3262 25.4686 36.3771 30.9229 30.9228C36.3771 25.4686 43.3262 21.7542 50.8915 20.2494C58.4568 18.7446 66.2984 19.5169 73.4247 22.4687C80.551 25.4205 86.642 30.4192 90.9273 36.8328C95.2127 43.2463 97.5 50.7865 97.5 58.5C97.5 68.8434 93.3911 78.7632 86.0772 86.0772C78.7633 93.3911 68.8435 97.5 58.5 97.5Z" fill="#217C58" fill-opacity="0.84"/>
</svg>
