<svg width="63" height="63" viewBox="0 0 63 63" fill="none" xmlns="http://www.w3.org/2000/svg">
<g id="Time / clock">
<path id="Vector" d="M28.875 5.25C23.6833 5.25 18.6081 6.78954 14.2913 9.67392C9.9745 12.5583 6.60997 16.658 4.62317 21.4546C2.63637 26.2511 2.11654 31.5291 3.1294 36.6211C4.14226 41.7131 6.64233 46.3904 10.3135 50.0616C13.9846 53.7327 18.6619 56.2328 23.7539 57.2456C28.8459 58.2585 34.1239 57.7386 38.9205 55.7518C43.717 53.765 47.8167 50.4005 50.7011 46.0837C53.5855 41.7669 55.125 36.6918 55.125 31.5C55.125 28.0528 54.446 24.6394 53.1269 21.4546C51.8077 18.2698 49.8741 15.376 47.4366 12.9384C44.999 10.5009 42.1053 8.56735 38.9205 7.24816C35.7357 5.92898 32.3222 5.25 28.875 5.25ZM28.875 52.5C24.7216 52.5 20.6615 51.2684 17.208 48.9609C13.7546 46.6534 11.063 43.3736 9.47354 39.5364C7.8841 35.6991 7.46823 31.4767 8.27852 27.4031C9.08881 23.3295 11.0889 19.5877 14.0258 16.6508C16.9627 13.7139 20.7045 11.7138 24.7781 10.9035C28.8517 10.0932 33.0741 10.5091 36.9114 12.0985C40.7486 13.688 44.0284 16.3796 46.3359 19.833C48.6434 23.2865 49.875 27.3466 49.875 31.5C49.875 37.0695 47.6625 42.411 43.7243 46.3492C39.786 50.2875 34.4446 52.5 28.875 52.5ZM28.875 15.75C28.1788 15.75 27.5111 16.0266 27.0189 16.5188C26.5266 17.0111 26.25 17.6788 26.25 18.375V31.3162L22.6538 37.5375C22.3057 38.1432 22.2124 38.8624 22.3946 39.5368C22.5767 40.2112 23.0193 40.7857 23.625 41.1338C24.2307 41.4818 24.9499 41.5751 25.6243 41.3929C26.2987 41.2108 26.8732 40.7682 27.2213 40.1625L31.1588 33.3375C31.4113 32.863 31.5121 32.3224 31.4475 31.7887L31.5 31.5V18.375C31.5 17.6788 31.2234 17.0111 30.7312 16.5188C30.2389 16.0266 29.5712 15.75 28.875 15.75Z" fill="#221E1E"/>
</g>
</svg>
