<svg width="11" height="11" viewBox="0 0 11 11" fill="none" xmlns="http://www.w3.org/2000/svg">
<g id="File and Folder / download folder">
<path id="Vector" d="M6.09109 6.32047L5.95817 6.45797V5.27088C5.95817 5.14933 5.90988 5.03275 5.82393 4.94679C5.73797 4.86084 5.62139 4.81255 5.49984 4.81255C5.37828 4.81255 5.2617 4.86084 5.17575 4.94679C5.08979 5.03275 5.0415 5.14933 5.0415 5.27088V6.45797L4.90859 6.32047C4.82228 6.23416 4.70523 6.18568 4.58317 6.18568C4.46112 6.18568 4.34406 6.23416 4.25775 6.32047C4.17145 6.40677 4.12296 6.52383 4.12296 6.64588C4.12296 6.76794 4.17145 6.88499 4.25775 6.9713L5.17442 7.88797C5.21801 7.92969 5.26941 7.9624 5.32567 7.98422C5.38053 8.00847 5.43985 8.02099 5.49984 8.02099C5.55982 8.02099 5.61914 8.00847 5.674 7.98422C5.73026 7.9624 5.78166 7.92969 5.82525 7.88797L6.74192 6.9713C6.82823 6.88499 6.87671 6.76794 6.87671 6.64588C6.87671 6.52383 6.82823 6.40677 6.74192 6.32047C6.65561 6.23416 6.53856 6.18568 6.4165 6.18568C6.29445 6.18568 6.17739 6.23416 6.09109 6.32047ZM8.70817 2.52088H5.82984L5.68317 2.06255C5.58809 1.79361 5.41172 1.56091 5.1785 1.39667C4.94528 1.23243 4.66675 1.14478 4.3815 1.14588H2.2915C1.92683 1.14588 1.57709 1.29075 1.31923 1.54861C1.06137 1.80647 0.916504 2.15621 0.916504 2.52088V8.47922C0.916504 8.84389 1.06137 9.19363 1.31923 9.45149C1.57709 9.70935 1.92683 9.85422 2.2915 9.85422H8.70817C9.07284 9.85422 9.42258 9.70935 9.68044 9.45149C9.9383 9.19363 10.0832 8.84389 10.0832 8.47922V3.89588C10.0832 3.53121 9.9383 3.18147 9.68044 2.92361C9.42258 2.66575 9.07284 2.52088 8.70817 2.52088ZM9.1665 8.47922C9.1665 8.60078 9.11822 8.71735 9.03226 8.80331C8.94631 8.88926 8.82973 8.93755 8.70817 8.93755H2.2915C2.16995 8.93755 2.05337 8.88926 1.96741 8.80331C1.88146 8.71735 1.83317 8.60078 1.83317 8.47922V2.52088C1.83317 2.39933 1.88146 2.28275 1.96741 2.19679C2.05337 2.11084 2.16995 2.06255 2.2915 2.06255H4.3815C4.47759 2.0623 4.57132 2.09226 4.64946 2.14819C4.72759 2.20411 4.78617 2.28318 4.81692 2.37422L5.06442 3.12588C5.09517 3.21692 5.15375 3.29599 5.23188 3.35191C5.31002 3.40784 5.40375 3.4378 5.49984 3.43755H8.70817C8.82973 3.43755 8.94631 3.48584 9.03226 3.57179C9.11822 3.65775 9.1665 3.77433 9.1665 3.89588V8.47922Z" fill="black"/>
</g>
</svg>
