<svg width="18" height="18" viewBox="0 0 18 18" fill="none" xmlns="http://www.w3.org/2000/svg">
<path d="M15.75 10.5H15V3H15.75C15.9489 3 16.1397 2.92098 16.2803 2.78033C16.421 2.63968 16.5 2.44891 16.5 2.25C16.5 2.05109 16.421 1.86032 16.2803 1.71967C16.1397 1.57902 15.9489 1.5 15.75 1.5H2.25C2.05109 1.5 1.86032 1.57902 1.71967 1.71967C1.57902 1.86032 1.5 2.05109 1.5 2.25C1.5 2.44891 1.57902 2.63968 1.71967 2.78033C1.86032 2.92098 2.05109 3 2.25 3H3V10.5H2.25C2.05109 10.5 1.86032 10.579 1.71967 10.7197C1.57902 10.8603 1.5 11.0511 1.5 11.25C1.5 11.4489 1.57902 11.6397 1.71967 11.7803C1.86032 11.921 2.05109 12 2.25 12H8.25V12.8625L4.8375 15.1125C4.6975 15.1992 4.58991 15.3295 4.53133 15.4834C4.47274 15.6372 4.46642 15.8061 4.51335 15.9639C4.56027 16.1218 4.65782 16.2598 4.79095 16.3566C4.92408 16.4535 5.0854 16.5039 5.25 16.5C5.39745 16.5017 5.54172 16.4571 5.6625 16.3725L8.25 14.6625V15.75C8.25 15.9489 8.32902 16.1397 8.46967 16.2803C8.61032 16.421 8.80109 16.5 9 16.5C9.19891 16.5 9.38968 16.421 9.53033 16.2803C9.67098 16.1397 9.75 15.9489 9.75 15.75V14.6625L12.3375 16.3725C12.4583 16.4571 12.6025 16.5017 12.75 16.5C12.9102 16.4988 13.0659 16.4462 13.1941 16.3501C13.3223 16.254 13.4164 16.1194 13.4625 15.9659C13.5086 15.8124 13.5044 15.6482 13.4504 15.4974C13.3964 15.3465 13.2955 15.2169 13.1625 15.1275L9.75 12.8775V12H15.75C15.9489 12 16.1397 11.921 16.2803 11.7803C16.421 11.6397 16.5 11.4489 16.5 11.25C16.5 11.0511 16.421 10.8603 16.2803 10.7197C16.1397 10.579 15.9489 10.5 15.75 10.5ZM13.5 10.5H4.5V3H13.5V10.5ZM7.2075 9.195C7.4074 9.3131 7.63532 9.3754 7.8675 9.3754C8.09968 9.3754 8.3276 9.3131 8.5275 9.195L10.7775 7.89C10.9699 7.77194 11.1287 7.60653 11.2389 7.40958C11.3491 7.21262 11.407 6.99069 11.407 6.765C11.407 6.53931 11.3491 6.31738 11.2389 6.12042C11.1287 5.92347 10.9699 5.75806 10.7775 5.64L8.5275 4.335C8.3276 4.2169 8.09968 4.1546 7.8675 4.1546C7.63532 4.1546 7.4074 4.2169 7.2075 4.335C7.00607 4.44855 6.83909 4.61444 6.72423 4.81512C6.60936 5.01581 6.55089 5.24381 6.555 5.475V8.085C6.55625 8.31112 6.61727 8.53288 6.73186 8.72782C6.84645 8.92275 7.01054 9.08393 7.2075 9.195ZM8.055 5.76L9.75 6.75L8.04 7.74L8.055 5.76Z" fill="black"/>
</svg>
